<mxfile host="65bd71144e">
    <diagram id="v8Zd3PMvQJyaI_jzeFNu" name="Visão Geral - Domínio">
        <mxGraphModel dx="897" dy="795" grid="1" gridSize="10" guides="1" tooltips="1" connect="1" arrows="1" fold="1" page="1" pageScale="1" pageWidth="850" pageHeight="1100" math="0" shadow="0">
            <root>
                <mxCell id="0"/>
                <mxCell id="1" parent="0"/>
                <mxCell id="2" value="Ecommerce XYZ" style="shape=umlFrame;whiteSpace=wrap;html=1;width=120;height=30;boundedLbl=1;verticalAlign=middle;align=left;spacingLeft=5;" parent="1" vertex="1">
                    <mxGeometry x="255" y="40" width="340" height="470" as="geometry"/>
                </mxCell>
                <mxCell id="6" style="edgeStyle=none;html=1;exitX=0.5;exitY=0.5;exitDx=0;exitDy=0;exitPerimeter=0;" parent="1" source="3" edge="1">
                    <mxGeometry relative="1" as="geometry">
                        <mxPoint x="55" y="230" as="targetPoint"/>
                    </mxGeometry>
                </mxCell>
                <mxCell id="3" value="Cliente" style="shape=umlActor;verticalLabelPosition=bottom;verticalAlign=top;html=1;" parent="1" vertex="1">
                    <mxGeometry x="50" y="116.25" width="30" height="60" as="geometry"/>
                </mxCell>
                <mxCell id="7" style="edgeStyle=none;html=1;exitX=0.5;exitY=0.5;exitDx=0;exitDy=0;exitPerimeter=0;" parent="1" source="4" edge="1">
                    <mxGeometry relative="1" as="geometry">
                        <mxPoint x="55" y="320" as="targetPoint"/>
                    </mxGeometry>
                </mxCell>
                <mxCell id="4" value="Administrador" style="shape=umlActor;verticalLabelPosition=bottom;verticalAlign=top;html=1;" parent="1" vertex="1">
                    <mxGeometry x="40" y="373.75" width="30" height="60" as="geometry"/>
                </mxCell>
                <mxCell id="5" value="Usuário" style="shape=umlActor;verticalLabelPosition=bottom;verticalAlign=top;html=1;" parent="1" vertex="1">
                    <mxGeometry x="40" y="240" width="30" height="60" as="geometry"/>
                </mxCell>
                <mxCell id="9" value="" style="shape=ellipse;container=1;horizontal=1;horizontalStack=0;resizeParent=1;resizeParentMax=0;resizeLast=0;html=1;dashed=0;collapsible=0;" parent="1" vertex="1">
                    <mxGeometry x="270" y="90" width="310" height="70" as="geometry"/>
                </mxCell>
                <mxCell id="10" value="Gerenciar Usuario" style="html=1;strokeColor=none;fillColor=none;align=center;verticalAlign=middle;rotatable=0;" parent="9" vertex="1">
                    <mxGeometry y="26.25" width="310.00000000000006" height="17.5" as="geometry"/>
                </mxCell>
                <mxCell id="14" value="" style="shape=ellipse;container=1;horizontal=1;horizontalStack=0;resizeParent=1;resizeParentMax=0;resizeLast=0;html=1;dashed=0;collapsible=0;" parent="1" vertex="1">
                    <mxGeometry x="270" y="170" width="310" height="70" as="geometry"/>
                </mxCell>
                <mxCell id="15" value="Gerenciar Carrinho" style="html=1;strokeColor=none;fillColor=none;align=center;verticalAlign=middle;rotatable=0;" parent="14" vertex="1">
                    <mxGeometry y="26.25" width="310.00000000000006" height="17.5" as="geometry"/>
                </mxCell>
                <mxCell id="16" value="" style="shape=ellipse;container=1;horizontal=1;horizontalStack=0;resizeParent=1;resizeParentMax=0;resizeLast=0;html=1;dashed=0;collapsible=0;" parent="1" vertex="1">
                    <mxGeometry x="270" y="250" width="310" height="70" as="geometry"/>
                </mxCell>
                <mxCell id="17" value="Gerenciar Pedido" style="html=1;strokeColor=none;fillColor=none;align=center;verticalAlign=middle;rotatable=0;" parent="16" vertex="1">
                    <mxGeometry y="26.25" width="310.00000000000006" height="17.5" as="geometry"/>
                </mxCell>
                <mxCell id="18" value="" style="shape=ellipse;container=1;horizontal=1;horizontalStack=0;resizeParent=1;resizeParentMax=0;resizeLast=0;html=1;dashed=0;collapsible=0;" parent="1" vertex="1">
                    <mxGeometry x="270" y="330" width="310" height="70" as="geometry"/>
                </mxCell>
                <mxCell id="19" value="Gerenciar Produtos" style="html=1;strokeColor=none;fillColor=none;align=center;verticalAlign=middle;rotatable=0;" parent="18" vertex="1">
                    <mxGeometry y="26.25" width="310.00000000000006" height="17.5" as="geometry"/>
                </mxCell>
                <mxCell id="20" value="" style="shape=ellipse;container=1;horizontal=1;horizontalStack=0;resizeParent=1;resizeParentMax=0;resizeLast=0;html=1;dashed=0;collapsible=0;" parent="1" vertex="1">
                    <mxGeometry x="270" y="410" width="310" height="70" as="geometry"/>
                </mxCell>
                <mxCell id="21" value="Gerenciar Categorias" style="html=1;strokeColor=none;fillColor=none;align=center;verticalAlign=middle;rotatable=0;" parent="20" vertex="1">
                    <mxGeometry y="26.25" width="310.00000000000006" height="17.5" as="geometry"/>
                </mxCell>
                <mxCell id="22" style="edgeStyle=none;html=1;entryX=0.5;entryY=0.5;entryDx=0;entryDy=0;entryPerimeter=0;endArrow=none;endFill=0;fillColor=#6a00ff;strokeColor=#3700CC;exitX=0;exitY=0.5;exitDx=0;exitDy=0;" parent="1" source="10" target="3" edge="1">
                    <mxGeometry relative="1" as="geometry"/>
                </mxCell>
                <mxCell id="23" style="edgeStyle=none;html=1;entryX=0.5;entryY=0.5;entryDx=0;entryDy=0;entryPerimeter=0;endArrow=none;endFill=0;fillColor=#e51400;strokeColor=#FF0000;exitX=0;exitY=0.5;exitDx=0;exitDy=0;" parent="1" source="10" target="4" edge="1">
                    <mxGeometry relative="1" as="geometry"/>
                </mxCell>
                <mxCell id="24" style="edgeStyle=none;html=1;exitX=0;exitY=0.5;exitDx=0;exitDy=0;entryX=0.5;entryY=0.5;entryDx=0;entryDy=0;entryPerimeter=0;endArrow=none;endFill=0;fillColor=#6a00ff;strokeColor=#3700CC;" parent="1" source="15" target="3" edge="1">
                    <mxGeometry relative="1" as="geometry"/>
                </mxCell>
                <mxCell id="25" style="edgeStyle=none;html=1;exitX=0;exitY=0.5;exitDx=0;exitDy=0;entryX=0.5;entryY=0.5;entryDx=0;entryDy=0;entryPerimeter=0;endArrow=none;endFill=0;fillColor=#6a00ff;strokeColor=#3700CC;" parent="1" source="17" target="3" edge="1">
                    <mxGeometry relative="1" as="geometry"/>
                </mxCell>
                <mxCell id="26" style="edgeStyle=none;html=1;exitX=0;exitY=0.5;exitDx=0;exitDy=0;entryX=0.5;entryY=0.5;entryDx=0;entryDy=0;entryPerimeter=0;endArrow=none;endFill=0;fillColor=#a20025;strokeColor=#FF0000;" parent="1" source="17" target="4" edge="1">
                    <mxGeometry relative="1" as="geometry"/>
                </mxCell>
                <mxCell id="27" style="edgeStyle=none;html=1;exitX=0;exitY=0.5;exitDx=0;exitDy=0;entryX=0.5;entryY=0.5;entryDx=0;entryDy=0;entryPerimeter=0;strokeColor=#FF0000;endArrow=none;endFill=0;" parent="1" source="19" target="4" edge="1">
                    <mxGeometry relative="1" as="geometry"/>
                </mxCell>
                <mxCell id="28" style="edgeStyle=none;html=1;exitX=0;exitY=0.5;exitDx=0;exitDy=0;strokeColor=#FF0000;endArrow=none;endFill=0;entryX=0.5;entryY=0.5;entryDx=0;entryDy=0;entryPerimeter=0;" parent="1" source="21" target="4" edge="1">
                    <mxGeometry relative="1" as="geometry">
                        <mxPoint x="50" y="370" as="targetPoint"/>
                    </mxGeometry>
                </mxCell>
            </root>
        </mxGraphModel>
    </diagram>
    <diagram id="kgnsa7DRbCNTgwQhgMfH" name="Subdomínio - Cátalogo">
        <mxGraphModel dx="575" dy="482" grid="1" gridSize="10" guides="1" tooltips="1" connect="1" arrows="1" fold="1" page="1" pageScale="1" pageWidth="850" pageHeight="1100" math="0" shadow="0">
            <root>
                <mxCell id="0"/>
                <mxCell id="1" parent="0"/>
                <mxCell id="p42-nB36Zngz_NReyAR6-1" value="Subdminio - Catalogo" style="shape=umlFrame;whiteSpace=wrap;html=1;width=150;height=20;boundedLbl=1;verticalAlign=middle;align=left;spacingLeft=5;" parent="1" vertex="1">
                    <mxGeometry x="190" y="100" width="900" height="680" as="geometry"/>
                </mxCell>
                <mxCell id="6PadUKwcSXp_6otiCti1-19" style="edgeStyle=none;html=1;entryX=0;entryY=0.75;entryDx=0;entryDy=0;endArrow=none;endFill=0;" parent="1" source="rQVGZtRjE8f_gTfgbPcK-1" target="zQSxLaOVCc166zyNeuNi-2" edge="1">
                    <mxGeometry relative="1" as="geometry"/>
                </mxCell>
                <mxCell id="rQVGZtRjE8f_gTfgbPcK-1" value="Administrador" style="shape=umlActor;verticalLabelPosition=bottom;verticalAlign=top;html=1;" parent="1" vertex="1">
                    <mxGeometry x="80" y="315" width="30" height="60" as="geometry"/>
                </mxCell>
                <mxCell id="zQSxLaOVCc166zyNeuNi-1" value="" style="shape=ellipse;container=1;horizontal=1;horizontalStack=0;resizeParent=1;resizeParentMax=0;resizeLast=0;html=1;dashed=0;collapsible=0;" parent="1" vertex="1">
                    <mxGeometry x="210" y="160" width="180" height="40" as="geometry"/>
                </mxCell>
                <mxCell id="zQSxLaOVCc166zyNeuNi-2" value="GerenciarCategorias" style="html=1;strokeColor=none;fillColor=none;align=center;verticalAlign=middle;rotatable=0;" parent="zQSxLaOVCc166zyNeuNi-1" vertex="1">
                    <mxGeometry y="15" width="180.00000000000006" height="10" as="geometry"/>
                </mxCell>
                <mxCell id="6PadUKwcSXp_6otiCti1-1" value="" style="shape=ellipse;container=1;horizontal=1;horizontalStack=0;resizeParent=1;resizeParentMax=0;resizeLast=0;html=1;dashed=0;collapsible=0;" parent="1" vertex="1">
                    <mxGeometry x="210" y="498" width="180" height="40" as="geometry"/>
                </mxCell>
                <mxCell id="6PadUKwcSXp_6otiCti1-2" value="Gerenciar Produtos" style="html=1;strokeColor=none;fillColor=none;align=center;verticalAlign=middle;rotatable=0;" parent="6PadUKwcSXp_6otiCti1-1" vertex="1">
                    <mxGeometry y="15" width="180.00000000000003" height="10" as="geometry"/>
                </mxCell>
                <mxCell id="6PadUKwcSXp_6otiCti1-3" value="" style="shape=ellipse;container=1;horizontal=1;horizontalStack=0;resizeParent=1;resizeParentMax=0;resizeLast=0;html=1;dashed=0;collapsible=0;" parent="1" vertex="1">
                    <mxGeometry x="451" y="120" width="140" height="40" as="geometry"/>
                </mxCell>
                <mxCell id="6PadUKwcSXp_6otiCti1-4" value="Criar Categoria" style="html=1;strokeColor=none;fillColor=none;align=center;verticalAlign=middle;rotatable=0;" parent="6PadUKwcSXp_6otiCti1-3" vertex="1">
                    <mxGeometry y="15" width="140.00000000000006" height="10" as="geometry"/>
                </mxCell>
                <mxCell id="6PadUKwcSXp_6otiCti1-6" value="" style="shape=ellipse;container=1;horizontal=1;horizontalStack=0;resizeParent=1;resizeParentMax=0;resizeLast=0;html=1;dashed=0;collapsible=0;" parent="1" vertex="1">
                    <mxGeometry x="451" y="170" width="140" height="40" as="geometry"/>
                </mxCell>
                <mxCell id="6PadUKwcSXp_6otiCti1-7" value="Consultar Categoria" style="html=1;strokeColor=none;fillColor=none;align=center;verticalAlign=middle;rotatable=0;" parent="6PadUKwcSXp_6otiCti1-6" vertex="1">
                    <mxGeometry y="15" width="140.00000000000006" height="10" as="geometry"/>
                </mxCell>
                <mxCell id="6PadUKwcSXp_6otiCti1-9" value="" style="shape=ellipse;container=1;horizontal=1;horizontalStack=0;resizeParent=1;resizeParentMax=0;resizeLast=0;html=1;dashed=0;collapsible=0;" parent="1" vertex="1">
                    <mxGeometry x="451" y="220" width="140" height="40" as="geometry"/>
                </mxCell>
                <mxCell id="6PadUKwcSXp_6otiCti1-10" value="Atualizar Categoria" style="html=1;strokeColor=none;fillColor=none;align=center;verticalAlign=middle;rotatable=0;" parent="6PadUKwcSXp_6otiCti1-9" vertex="1">
                    <mxGeometry y="15" width="140.00000000000006" height="10" as="geometry"/>
                </mxCell>
                <mxCell id="6PadUKwcSXp_6otiCti1-11" value="" style="shape=ellipse;container=1;horizontal=1;horizontalStack=0;resizeParent=1;resizeParentMax=0;resizeLast=0;html=1;dashed=0;collapsible=0;" parent="1" vertex="1">
                    <mxGeometry x="451" y="270" width="140" height="40" as="geometry"/>
                </mxCell>
                <mxCell id="6PadUKwcSXp_6otiCti1-12" value="Deletar Categoria" style="html=1;strokeColor=none;fillColor=none;align=center;verticalAlign=middle;rotatable=0;" parent="6PadUKwcSXp_6otiCti1-11" vertex="1">
                    <mxGeometry y="15" width="140.00000000000006" height="10" as="geometry"/>
                </mxCell>
                <mxCell id="6PadUKwcSXp_6otiCti1-15" value="&amp;lt;&amp;lt;extend&amp;gt;&amp;gt;" style="html=1;verticalAlign=bottom;labelBackgroundColor=none;endArrow=open;endFill=0;dashed=1;exitX=0;exitY=0.75;exitDx=0;exitDy=0;entryX=0.943;entryY=0.215;entryDx=0;entryDy=0;entryPerimeter=0;" parent="1" source="6PadUKwcSXp_6otiCti1-4" target="zQSxLaOVCc166zyNeuNi-1" edge="1">
                    <mxGeometry width="160" relative="1" as="geometry">
                        <mxPoint x="320" y="290" as="sourcePoint"/>
                        <mxPoint x="480" y="290" as="targetPoint"/>
                        <mxPoint as="offset"/>
                    </mxGeometry>
                </mxCell>
                <mxCell id="6PadUKwcSXp_6otiCti1-16" value="&amp;lt;&amp;lt;extend&amp;gt;&amp;gt;" style="html=1;verticalAlign=bottom;labelBackgroundColor=none;endArrow=open;endFill=0;dashed=1;exitX=0;exitY=0.5;exitDx=0;exitDy=0;entryX=0.943;entryY=0.215;entryDx=0;entryDy=0;entryPerimeter=0;" parent="1" source="6PadUKwcSXp_6otiCti1-7" edge="1">
                    <mxGeometry width="160" relative="1" as="geometry">
                        <mxPoint x="450" y="152.5" as="sourcePoint"/>
                        <mxPoint x="389.74" y="178.60000000000002" as="targetPoint"/>
                        <mxPoint as="offset"/>
                    </mxGeometry>
                </mxCell>
                <mxCell id="6PadUKwcSXp_6otiCti1-17" value="&amp;lt;&amp;lt;extend&amp;gt;&amp;gt;" style="html=1;verticalAlign=bottom;labelBackgroundColor=none;endArrow=open;endFill=0;dashed=1;exitX=0;exitY=0;exitDx=0;exitDy=0;entryX=0.966;entryY=0.687;entryDx=0;entryDy=0;entryPerimeter=0;" parent="1" source="6PadUKwcSXp_6otiCti1-10" target="zQSxLaOVCc166zyNeuNi-1" edge="1">
                    <mxGeometry width="160" relative="1" as="geometry">
                        <mxPoint x="460" y="162.5" as="sourcePoint"/>
                        <mxPoint x="399.74" y="188.60000000000002" as="targetPoint"/>
                        <mxPoint as="offset"/>
                    </mxGeometry>
                </mxCell>
                <mxCell id="6PadUKwcSXp_6otiCti1-18" value="&amp;lt;&amp;lt;extend&amp;gt;&amp;gt;" style="html=1;verticalAlign=bottom;labelBackgroundColor=none;endArrow=open;endFill=0;dashed=1;exitX=0;exitY=0;exitDx=0;exitDy=0;entryX=0.917;entryY=0.841;entryDx=0;entryDy=0;entryPerimeter=0;" parent="1" source="6PadUKwcSXp_6otiCti1-12" target="zQSxLaOVCc166zyNeuNi-1" edge="1">
                    <mxGeometry width="160" relative="1" as="geometry">
                        <mxPoint x="470" y="172.5" as="sourcePoint"/>
                        <mxPoint x="409.74" y="198.60000000000002" as="targetPoint"/>
                        <mxPoint as="offset"/>
                    </mxGeometry>
                </mxCell>
                <mxCell id="6PadUKwcSXp_6otiCti1-24" style="edgeStyle=none;html=1;entryX=1;entryY=0;entryDx=0;entryDy=0;endArrow=blockThin;endFill=1;exitX=0;exitY=1;exitDx=0;exitDy=0;" parent="1" source="6PadUKwcSXp_6otiCti1-21" target="6PadUKwcSXp_6otiCti1-7" edge="1">
                    <mxGeometry relative="1" as="geometry"/>
                </mxCell>
                <mxCell id="6PadUKwcSXp_6otiCti1-20" value="" style="shape=ellipse;container=1;horizontal=1;horizontalStack=0;resizeParent=1;resizeParentMax=0;resizeLast=0;html=1;dashed=0;collapsible=0;" parent="1" vertex="1">
                    <mxGeometry x="640" y="120" width="180" height="60" as="geometry"/>
                </mxCell>
                <mxCell id="6PadUKwcSXp_6otiCti1-21" value="Consultar Categoria&lt;br&gt;&amp;nbsp;por ID" style="html=1;strokeColor=none;fillColor=none;align=center;verticalAlign=middle;rotatable=0;" parent="6PadUKwcSXp_6otiCti1-20" vertex="1">
                    <mxGeometry y="22.5" width="180.00000000000009" height="15" as="geometry"/>
                </mxCell>
                <mxCell id="6PadUKwcSXp_6otiCti1-25" style="edgeStyle=none;html=1;entryX=1;entryY=1;entryDx=0;entryDy=0;endArrow=blockThin;endFill=1;exitX=0;exitY=0;exitDx=0;exitDy=0;" parent="1" source="6PadUKwcSXp_6otiCti1-23" target="6PadUKwcSXp_6otiCti1-7" edge="1">
                    <mxGeometry relative="1" as="geometry"/>
                </mxCell>
                <mxCell id="6PadUKwcSXp_6otiCti1-22" value="" style="shape=ellipse;container=1;horizontal=1;horizontalStack=0;resizeParent=1;resizeParentMax=0;resizeLast=0;html=1;dashed=0;collapsible=0;" parent="1" vertex="1">
                    <mxGeometry x="640" y="190" width="180" height="60" as="geometry"/>
                </mxCell>
                <mxCell id="6PadUKwcSXp_6otiCti1-23" value="Consultar Categoria &lt;br&gt;por Filtro" style="html=1;strokeColor=none;fillColor=none;align=center;verticalAlign=middle;rotatable=0;" parent="6PadUKwcSXp_6otiCti1-22" vertex="1">
                    <mxGeometry y="22.5" width="180.00000000000009" height="15" as="geometry"/>
                </mxCell>
                <mxCell id="6PadUKwcSXp_6otiCti1-28" value="" style="shape=ellipse;container=1;horizontal=1;horizontalStack=0;resizeParent=1;resizeParentMax=0;resizeLast=0;html=1;dashed=0;collapsible=0;" parent="1" vertex="1">
                    <mxGeometry x="451" y="430" width="140" height="40" as="geometry"/>
                </mxCell>
                <mxCell id="6PadUKwcSXp_6otiCti1-29" value="Criar Produtos" style="html=1;strokeColor=none;fillColor=none;align=center;verticalAlign=middle;rotatable=0;" parent="6PadUKwcSXp_6otiCti1-28" vertex="1">
                    <mxGeometry y="15" width="140.00000000000006" height="10" as="geometry"/>
                </mxCell>
                <mxCell id="6PadUKwcSXp_6otiCti1-30" value="" style="shape=ellipse;container=1;horizontal=1;horizontalStack=0;resizeParent=1;resizeParentMax=0;resizeLast=0;html=1;dashed=0;collapsible=0;" parent="1" vertex="1">
                    <mxGeometry x="451" y="480" width="140" height="40" as="geometry"/>
                </mxCell>
                <mxCell id="6PadUKwcSXp_6otiCti1-31" value="Consultar Produtos" style="html=1;strokeColor=none;fillColor=none;align=center;verticalAlign=middle;rotatable=0;" parent="6PadUKwcSXp_6otiCti1-30" vertex="1">
                    <mxGeometry y="15" width="140.00000000000006" height="10" as="geometry"/>
                </mxCell>
                <mxCell id="6PadUKwcSXp_6otiCti1-32" value="" style="shape=ellipse;container=1;horizontal=1;horizontalStack=0;resizeParent=1;resizeParentMax=0;resizeLast=0;html=1;dashed=0;collapsible=0;" parent="1" vertex="1">
                    <mxGeometry x="451" y="530" width="140" height="40" as="geometry"/>
                </mxCell>
                <mxCell id="6PadUKwcSXp_6otiCti1-33" value="Atualizar Produtos" style="html=1;strokeColor=none;fillColor=none;align=center;verticalAlign=middle;rotatable=0;" parent="6PadUKwcSXp_6otiCti1-32" vertex="1">
                    <mxGeometry y="15" width="140.00000000000006" height="10" as="geometry"/>
                </mxCell>
                <mxCell id="6PadUKwcSXp_6otiCti1-34" value="" style="shape=ellipse;container=1;horizontal=1;horizontalStack=0;resizeParent=1;resizeParentMax=0;resizeLast=0;html=1;dashed=0;collapsible=0;" parent="1" vertex="1">
                    <mxGeometry x="451" y="580" width="140" height="40" as="geometry"/>
                </mxCell>
                <mxCell id="6PadUKwcSXp_6otiCti1-35" value="Deletar Produtos" style="html=1;strokeColor=none;fillColor=none;align=center;verticalAlign=middle;rotatable=0;" parent="6PadUKwcSXp_6otiCti1-34" vertex="1">
                    <mxGeometry y="15" width="140.00000000000006" height="10" as="geometry"/>
                </mxCell>
                <mxCell id="6PadUKwcSXp_6otiCti1-36" value="&amp;lt;&amp;lt;extend&amp;gt;&amp;gt;" style="html=1;verticalAlign=bottom;labelBackgroundColor=none;endArrow=open;endFill=0;dashed=1;entryX=0.921;entryY=0.226;entryDx=0;entryDy=0;entryPerimeter=0;exitX=0;exitY=0.5;exitDx=0;exitDy=0;" parent="1" source="6PadUKwcSXp_6otiCti1-29" target="6PadUKwcSXp_6otiCti1-1" edge="1">
                    <mxGeometry width="160" relative="1" as="geometry">
                        <mxPoint x="451" y="450" as="sourcePoint"/>
                        <mxPoint x="379.74" y="480" as="targetPoint"/>
                        <mxPoint as="offset"/>
                    </mxGeometry>
                </mxCell>
                <mxCell id="6PadUKwcSXp_6otiCti1-37" value="&amp;lt;&amp;lt;extend&amp;gt;&amp;gt;" style="html=1;verticalAlign=bottom;labelBackgroundColor=none;endArrow=open;endFill=0;dashed=1;entryX=1;entryY=0.25;entryDx=0;entryDy=0;exitX=0;exitY=0.5;exitDx=0;exitDy=0;" parent="1" source="6PadUKwcSXp_6otiCti1-31" target="6PadUKwcSXp_6otiCti1-2" edge="1">
                    <mxGeometry width="160" relative="1" as="geometry">
                        <mxPoint x="461" y="460" as="sourcePoint"/>
                        <mxPoint x="385.78" y="517.04" as="targetPoint"/>
                        <mxPoint as="offset"/>
                    </mxGeometry>
                </mxCell>
                <mxCell id="6PadUKwcSXp_6otiCti1-38" value="&amp;lt;&amp;lt;extend&amp;gt;&amp;gt;" style="html=1;verticalAlign=bottom;labelBackgroundColor=none;endArrow=open;endFill=0;dashed=1;entryX=0.948;entryY=0.72;entryDx=0;entryDy=0;entryPerimeter=0;exitX=0;exitY=0.25;exitDx=0;exitDy=0;" parent="1" source="6PadUKwcSXp_6otiCti1-33" target="6PadUKwcSXp_6otiCti1-1" edge="1">
                    <mxGeometry width="160" relative="1" as="geometry">
                        <mxPoint x="471" y="470" as="sourcePoint"/>
                        <mxPoint x="395.78" y="527.04" as="targetPoint"/>
                        <mxPoint as="offset"/>
                    </mxGeometry>
                </mxCell>
                <mxCell id="6PadUKwcSXp_6otiCti1-39" value="&amp;lt;&amp;lt;extend&amp;gt;&amp;gt;" style="html=1;verticalAlign=bottom;labelBackgroundColor=none;endArrow=open;endFill=0;dashed=1;entryX=0.826;entryY=0.91;entryDx=0;entryDy=0;entryPerimeter=0;exitX=0;exitY=0.5;exitDx=0;exitDy=0;" parent="1" source="6PadUKwcSXp_6otiCti1-34" target="6PadUKwcSXp_6otiCti1-1" edge="1">
                    <mxGeometry width="160" relative="1" as="geometry">
                        <mxPoint x="481" y="480" as="sourcePoint"/>
                        <mxPoint x="405.78" y="537.04" as="targetPoint"/>
                        <mxPoint as="offset"/>
                    </mxGeometry>
                </mxCell>
                <mxCell id="6PadUKwcSXp_6otiCti1-42" style="edgeStyle=none;html=1;entryX=1;entryY=0;entryDx=0;entryDy=0;endArrow=blockThin;endFill=1;exitX=0;exitY=0.75;exitDx=0;exitDy=0;" parent="1" source="6PadUKwcSXp_6otiCti1-41" target="6PadUKwcSXp_6otiCti1-31" edge="1">
                    <mxGeometry relative="1" as="geometry"/>
                </mxCell>
                <mxCell id="6PadUKwcSXp_6otiCti1-40" value="" style="shape=ellipse;container=1;horizontal=1;horizontalStack=0;resizeParent=1;resizeParentMax=0;resizeLast=0;html=1;dashed=0;collapsible=0;" parent="1" vertex="1">
                    <mxGeometry x="650" y="440" width="140" height="40" as="geometry"/>
                </mxCell>
                <mxCell id="6PadUKwcSXp_6otiCti1-41" value="Consultar Produtos&lt;br&gt;por ID" style="html=1;strokeColor=none;fillColor=none;align=center;verticalAlign=middle;rotatable=0;" parent="6PadUKwcSXp_6otiCti1-40" vertex="1">
                    <mxGeometry y="15" width="140.00000000000006" height="10" as="geometry"/>
                </mxCell>
                <mxCell id="6PadUKwcSXp_6otiCti1-43" value="" style="shape=ellipse;container=1;horizontal=1;horizontalStack=0;resizeParent=1;resizeParentMax=0;resizeLast=0;html=1;dashed=0;collapsible=0;" parent="1" vertex="1">
                    <mxGeometry x="650" y="510" width="140" height="40" as="geometry"/>
                </mxCell>
                <mxCell id="6PadUKwcSXp_6otiCti1-44" value="Consultar Produtos&lt;br&gt;por Filtro" style="html=1;strokeColor=none;fillColor=none;align=center;verticalAlign=middle;rotatable=0;" parent="6PadUKwcSXp_6otiCti1-43" vertex="1">
                    <mxGeometry y="15" width="140.00000000000006" height="10" as="geometry"/>
                </mxCell>
                <mxCell id="6PadUKwcSXp_6otiCti1-45" value="" style="edgeStyle=none;html=1;endArrow=blockThin;endFill=1;entryX=0.904;entryY=0.818;entryDx=0;entryDy=0;entryPerimeter=0;exitX=0;exitY=0.5;exitDx=0;exitDy=0;" parent="1" source="6PadUKwcSXp_6otiCti1-44" target="6PadUKwcSXp_6otiCti1-30" edge="1">
                    <mxGeometry relative="1" as="geometry"/>
                </mxCell>
                <mxCell id="6PadUKwcSXp_6otiCti1-46" value="" style="shape=ellipse;container=1;horizontal=1;horizontalStack=0;resizeParent=1;resizeParentMax=0;resizeLast=0;html=1;dashed=0;collapsible=0;" parent="1" vertex="1">
                    <mxGeometry x="880" y="510" width="140" height="40" as="geometry"/>
                </mxCell>
                <mxCell id="6PadUKwcSXp_6otiCti1-47" value="Consultar Produtos&lt;br&gt;por Categoria" style="html=1;strokeColor=none;fillColor=none;align=center;verticalAlign=middle;rotatable=0;" parent="6PadUKwcSXp_6otiCti1-46" vertex="1">
                    <mxGeometry y="15" width="140.00000000000006" height="10" as="geometry"/>
                </mxCell>
                <mxCell id="6PadUKwcSXp_6otiCti1-48" style="edgeStyle=none;html=1;entryX=1;entryY=0.5;entryDx=0;entryDy=0;endArrow=blockThin;endFill=1;strokeColor=#FFFFFF;" parent="1" source="6PadUKwcSXp_6otiCti1-47" target="6PadUKwcSXp_6otiCti1-44" edge="1">
                    <mxGeometry relative="1" as="geometry"/>
                </mxCell>
                <mxCell id="6PadUKwcSXp_6otiCti1-49" value="" style="shape=ellipse;container=1;horizontal=1;horizontalStack=0;resizeParent=1;resizeParentMax=0;resizeLast=0;html=1;dashed=0;collapsible=0;" parent="1" vertex="1">
                    <mxGeometry x="451" y="680" width="140" height="40" as="geometry"/>
                </mxCell>
                <mxCell id="6PadUKwcSXp_6otiCti1-50" value="Adicionar Categoria" style="html=1;strokeColor=none;fillColor=none;align=center;verticalAlign=middle;rotatable=0;" parent="6PadUKwcSXp_6otiCti1-49" vertex="1">
                    <mxGeometry y="15" width="140.00000000000006" height="10" as="geometry"/>
                </mxCell>
                <mxCell id="6PadUKwcSXp_6otiCti1-52" value="&amp;lt;&amp;lt;extend&amp;gt;&amp;gt;" style="html=1;verticalAlign=bottom;labelBackgroundColor=none;endArrow=open;endFill=0;dashed=1;entryX=0.778;entryY=1.05;entryDx=0;entryDy=0;entryPerimeter=0;exitX=0;exitY=0;exitDx=0;exitDy=0;" parent="1" source="6PadUKwcSXp_6otiCti1-50" target="6PadUKwcSXp_6otiCti1-1" edge="1">
                    <mxGeometry width="160" relative="1" as="geometry">
                        <mxPoint x="455" y="649" as="sourcePoint"/>
                        <mxPoint x="362.67999999999995" y="583.4000000000001" as="targetPoint"/>
                        <mxPoint as="offset"/>
                    </mxGeometry>
                </mxCell>
            </root>
        </mxGraphModel>
    </diagram>
</mxfile>